Coordinates
version=1
nRows=19
nColumns=24
inDegrees=yes

Units are S.I. units (second, meters, Newtons, ...)
Angles are in degrees.

endheader
time	pelvis_tilt	pelvis_list	pelvis_rotation	pelvis_tx	pelvis_ty	pelvis_tz	hip_flexion_r	hip_adduction_r	hip_rotation_r	knee_angle_r	ankle_angle_r	subtalar_angle_r	mtp_angle_r	hip_flexion_l	hip_adduction_l	hip_rotation_l	knee_angle_l	ankle_angle_l	subtalar_angle_l	mtp_angle_l	lumbar_extension	lumbar_bending	lumbar_rotation
      1.25916667	     -3.06986437	      1.51223232	     -5.10024633	      0.30359761	      1.07198974	      0.25249761	     22.34773858	     -4.68748304	     -6.29896244	    -68.34610154	      3.68607104	     -1.58660672	      4.87244754	     11.45987669	      3.62486385	      0.20184018	    -17.86948720	     12.14034142	      3.85069959	     -0.99510446	    -11.62853457	     -2.61607650	     -1.00311598
      1.26333333	     -3.09261833	      1.45441631	     -5.00816701	      0.30843672	      1.07276282	      0.25242447	     22.79048866	     -4.56237240	     -6.41608125	    -67.71901083	      3.86078451	     -1.46550047	      4.88270312	     10.97714807	      3.58770330	      0.25565635	    -17.41177575	     12.14097310	      3.96368614	     -0.99538832	    -11.63042249	     -2.64613965	     -1.09401208
      1.26750000	     -2.98898656	      1.34831743	     -4.83890985	      0.31330088	      1.07377373	      0.25211968	     23.04276147	     -4.47036361	     -6.68063213	    -67.02698591	      4.25312761	     -0.95227312	      4.93013613	     10.35831628	      3.53057363	      0.35829732	    -16.95353307	     12.15105416	      4.08133630	     -0.99755008	    -11.82416874	     -2.40756236	     -1.48207802
      1.27166667	     -3.00324881	      1.28171798	     -4.74226522	      0.31819715	      1.07449317	      0.25199510	     23.44484510	     -4.34876519	     -6.81835997	    -66.31983297	      4.51518773	     -0.80926586	      4.95031124	      9.86244036	      3.48540883	      0.38746343	    -16.48805078	     12.13658493	      4.17422504	     -0.99893544	    -11.80483138	     -2.27454070	     -1.60198467
      1.27583333	     -2.96348277	      1.21203821	     -4.59343446	      0.32302349	      1.07525570	      0.25179726	     23.76549589	     -4.25930138	     -7.01471921	    -65.56422725	      4.79767075	     -0.44823204	      4.99472170	      9.32427073	      3.44871923	      0.48265050	    -16.04486534	     12.14525020	      4.27671960	     -1.00048335	    -11.91626514	     -2.18614197	     -1.90842804
      1.28000000	     -2.99038208	      1.14537019	     -4.49487323	      0.32792052	      1.07587354	      0.25169467	     24.15415410	     -4.13116677	     -7.14114475	    -64.77105901	      5.03773250	     -0.31545965	      5.01473887	      8.84804895	      3.39682806	      0.51486591	    -15.59079423	     12.13725179	      4.36924399	     -1.00130281	    -11.88346729	     -2.05895527	     -2.01070672
      1.28416667	     -2.98971612	      1.07849826	     -4.36192849	      0.33275273	      1.07648436	      0.25152871	     24.49631959	     -4.02332714	     -7.29824604	    -63.93523059	      5.29597666	     -0.06447730	      5.04350092	      8.36100407	      3.35061901	      0.56944518	    -15.16607142	     12.14361053	      4.46198698	     -1.00159860	    -11.93721595	     -1.96816780	     -2.19575410
      1.28833333	     -3.02296012	      1.06622008	     -4.27771536	      0.33759172	      1.07691030	      0.25149073	     24.89770499	     -3.94166459	     -7.37368985	    -63.10666644	      5.45956011	      0.02365575	      5.05329173	      7.90229479	      3.35502603	      0.60733559	    -14.72004979	     12.14983524	      4.56504715	     -1.00123863	    -11.89449047	     -2.01738600	     -2.27843399
      1.29250000	     -3.02152763	      0.99801970	     -4.16499268	      0.34250593	      1.07743105	      0.25132954	     25.21438721	     -3.83424464	     -7.52205496	    -62.20875030	      5.74591462	      0.26229259	      5.07707602	      7.39953158	      3.30751284	      0.65977957	    -14.26983882	     12.15467868	      4.66169715	     -1.00078095	    -11.91456869	     -1.78998457	     -2.44812608
      1.29666667	     -3.03067509	      0.97573437	     -4.06527684	      0.34734467	      1.07781896	      0.25126913	     25.55308990	     -3.75333409	     -7.61570369	    -61.29603705	      5.95842470	      0.42951639	      5.09680697	      6.92251268	      3.30083026	      0.71138395	    -13.83715846	     12.16831870	      4.75319634	     -0.99984814	    -11.92354127	     -1.75268023	     -2.62200787
      1.30083333	     -3.07201327	      0.97910725	     -3.96622835	      0.35209851	      1.07807217	      0.25122212	     25.92791642	     -3.68293860	     -7.66500210	    -60.35509365	      6.12120221	      0.51310667	      5.10654973	      6.50811995	      3.31509958	      0.73177397	    -13.45650940	     12.18443338	      4.82948636	     -0.99903554	    -11.91625101	     -1.83073796	     -2.72584980
      1.30500000	     -3.09728853	      0.95183849	     -3.88474501	      0.35701554	      1.07834921	      0.25116743	     26.25571999	     -3.59595461	     -7.74875880	    -59.37778243	      6.35997840	      0.66800369	      5.12539753	      6.04007863	      3.30086138	      0.77780911	    -13.01373198	     12.20229164	      4.91249504	     -0.99765776	    -11.89319148	     -1.67383950	     -2.89223884
      1.30916667	     -3.14180972	      0.97293591	     -3.79098547	      0.36175097	      1.07847823	      0.25114577	     26.61290855	     -3.53858261	     -7.76687282	    -58.37208267	      6.51355812	      0.74227906	      5.13491374	      5.63969641	      3.33131151	      0.80710395	    -12.65210613	     12.22556365	      4.98605977	     -0.99629682	    -11.87548677	     -1.76008557	     -3.00725850
      1.31333333	     -3.18483598	      0.98431911	     -3.71932879	      0.36658304	      1.07858015	      0.25114297	     26.95011424	     -3.46737877	     -7.77969173	    -57.33513195	      6.68952836	      0.81352803	      5.14501694	      5.21862388	      3.35209555	      0.83588100	    -12.26066185	     12.25466788	      5.05989091	     -0.99473725	    -11.84151733	     -1.76193225	     -3.12237968
      1.31750000	     -3.20638654	      0.96838658	     -3.65471303	      0.37148262	      1.07870500	      0.25111654	     27.24167887	     -3.38404472	     -7.82991191	    -56.26438730	      6.88878534	      0.90855750	      5.16377918	      4.75859849	      3.34562555	      0.87664495	    -11.84079395	     12.29013450	      5.11674046	     -0.99219476	    -11.84724495	     -1.62130828	     -3.31753286
      1.32166667	     -3.24571033	      1.01921082	     -3.59135912	      0.37624673	      1.07867072	      0.25115199	     27.56342841	     -3.34190650	     -7.78673426	    -55.17561624	      7.02844426	      0.94153432	      5.17379837	      4.35212990	      3.40738921	      0.91462599	    -11.48017902	     12.32418841	      5.18202338	     -0.99003296	    -11.81355437	     -1.69728138	     -3.43880502
      1.32583333	     -3.29822658	      1.05310882	     -3.54433844	      0.38106156	      1.07858183	      0.25119822	     27.88312052	     -3.28092824	     -7.74554101	    -54.05675311	      7.18136754	      0.96112444	      5.18481874	      3.95106242	      3.44740588	      0.94458049	    -11.10752893	     12.36782225	      5.23192985	     -0.98768150	    -11.77475916	     -1.70515398	     -3.55979729
      1.33000000	     -3.36033107	      1.10334568	     -3.50520624	      0.38588073	      1.07841852	      0.25127347	     28.20339454	     -3.23070311	     -7.69130788	    -52.90908206	      7.31865375	      0.96472638	      5.19428070	      3.56580373	      3.50270679	      0.97165177	    -10.74435108	     12.41398789	      5.27656096	     -0.98527206	    -11.74108375	     -1.75761191	     -3.67060584
      1.33416667	     -3.41708431	      1.15327314	     -3.46020845	      0.39065601	      1.07822128	      0.25130496	     28.49615555	     -3.17373726	     -7.59893394	    -51.70772216	      7.44833382	      0.94610584	      5.20721595	      3.18781854	      3.56054733	      1.00338275	    -10.41269823	     12.46357560	      5.29465959	     -0.98231089	    -11.69393311	     -1.76078125	     -3.79751783
